<?xml version="1.0" encoding="UTF-8" standalone="no"?>
<!-- Created with Inkscape (http://www.inkscape.org/) -->

<svg
   width="48mm"
   height="48mm"
   viewBox="0 0 48 48"
   version="1.1"
   id="svg1"
   xml:space="preserve"
   inkscape:version="1.3 (0e150ed6c4, 2023-07-21)"
   sodipodi:docname="mute-2.svg"
   xmlns:inkscape="http://www.inkscape.org/namespaces/inkscape"
   xmlns:sodipodi="http://sodipodi.sourceforge.net/DTD/sodipodi-0.dtd"
   xmlns="http://www.w3.org/2000/svg"
   xmlns:svg="http://www.w3.org/2000/svg"><sodipodi:namedview
     id="namedview1"
     pagecolor="#ffffff"
     bordercolor="#000000"
     borderopacity="0.25"
     inkscape:showpageshadow="2"
     inkscape:pageopacity="0.0"
     inkscape:pagecheckerboard="0"
     inkscape:deskcolor="#d1d1d1"
     inkscape:document-units="mm"
     inkscape:zoom="2.0485264"
     inkscape:cx="-15.132829"
     inkscape:cy="112.51991"
     inkscape:window-width="1920"
     inkscape:window-height="1009"
     inkscape:window-x="-8"
     inkscape:window-y="-8"
     inkscape:window-maximized="1"
     inkscape:current-layer="layer1" /><defs
     id="defs1"><inkscape:path-effect
       effect="bspline"
       id="path-effect6"
       is_visible="true"
       lpeversion="1.3"
       weight="33.333333"
       steps="2"
       helper_size="0"
       apply_no_weight="true"
       apply_with_weight="true"
       only_selected="false"
       uniform="false" /><inkscape:path-effect
       effect="bspline"
       id="path-effect4"
       is_visible="true"
       lpeversion="1.3"
       weight="33.333333"
       steps="2"
       helper_size="0"
       apply_no_weight="true"
       apply_with_weight="true"
       only_selected="false"
       uniform="false" /><inkscape:path-effect
       effect="bspline"
       id="path-effect2"
       is_visible="true"
       lpeversion="1.3"
       weight="33.333333"
       steps="2"
       helper_size="0"
       apply_no_weight="true"
       apply_with_weight="true"
       only_selected="false"
       uniform="false" /><inkscape:path-effect
       effect="bspline"
       id="path-effect1"
       is_visible="true"
       lpeversion="1.3"
       weight="33.333333"
       steps="2"
       helper_size="0"
       apply_no_weight="true"
       apply_with_weight="true"
       only_selected="false"
       uniform="false" /><clipPath
       clipPathUnits="userSpaceOnUse"
       id="clipPath2"><path
         style="fill:#00ffff;stroke-width:0.264999"
         d="m 27.474444,17.651577 c 0.832657,0.58121 1.177079,1.700579 1.499976,2.755378 0.322898,1.054799 0.624261,2.04499 0.710364,3.03521 0.0861,0.99022 -0.04305,1.980411 -0.258318,2.787653 -0.215266,0.807243 -0.516628,1.431493 -0.904107,2.023473 -0.387479,0.59198 -0.861048,1.151654 -1.958906,1.560656 -1.097859,0.409002 -2.81993,0.667312 -4.681976,0.258301 -1.862045,-0.40901 -3.863953,-1.485304 -4.945302,-2.49705 -1.081349,-1.011746 -1.242093,-1.958885 -1.322467,-3.013686 -0.08037,-1.054801 -0.08037,-2.217199 0.355192,-3.153601 0.435567,-0.936401 1.306666,-1.646755 2.161995,-2.238734 0.85533,-0.591978 1.69484,-1.065548 2.670404,-1.409971 0.975563,-0.344422 2.087121,-0.559682 3.303371,-0.645787 1.21625,-0.0861 2.537117,-0.04305 3.369774,0.538158 z"
         id="path3"
         inkscape:path-effect="#path-effect2"
         inkscape:original-d="m 27.96268,17.113419 c 0.344421,1.119368 0.688842,2.238737 1.033264,3.358105 0.301373,0.99023 0.602736,1.980421 0.904105,2.970631 -0.129159,0.99023 -0.258316,1.980421 -0.387475,2.970631 -0.301373,0.624275 -0.602736,1.248525 -0.904105,1.872789 -0.473588,0.559697 -0.947158,1.11937 -1.420735,1.679053 -1.72214,0.258321 -3.444211,0.516631 -5.166316,0.774946 -2.001987,-1.076335 -4.003894,-2.152631 -6.005841,-3.228945 -0.160751,-0.947177 -0.321496,-1.894316 -0.482243,-2.841474 0,-1.162444 0,-2.324842 0,-3.487263 0.871133,-0.710382 1.742232,-1.420736 2.613348,-2.131105 0.839543,-0.473588 1.679053,-0.947158 2.518579,-1.420736 1.111601,-0.215268 2.223159,-0.430527 3.334739,-0.64579 1.32092,0.04305 2.641787,0.0861 3.96268,0.129158 z" /></clipPath><clipPath
       clipPathUnits="userSpaceOnUse"
       id="clipPath4"><path
         style="fill:#00ffff;stroke-width:0.264999"
         d="m 24.40014,30.716409 c -1.948195,-0.590334 -5.456984,-2.237097 -7.345921,-4.077617 -1.888936,-1.84052 -2.15801,-3.874716 -0.486625,-5.441086 1.671385,-1.566371 5.28309,-2.664832 7.468018,-2.707874 2.184929,-0.04304 2.942978,0.969315 3.510369,1.938329 0.567391,0.969013 0.944094,1.894626 1.137831,2.615763 0.193737,0.721136 0.2045,1.237757 0.09148,1.802829 -0.113015,0.565072 -0.349799,1.17856 -0.500484,1.61447 -0.150685,0.435911 -0.215263,0.694221 -0.392795,1.316854 -0.177531,0.622634 -0.468002,1.609548 -0.807045,2.336064 -0.339043,0.726517 -0.726636,1.192602 -2.674832,0.602268 z"
         id="path5"
         inkscape:path-effect="#path-effect4"
         inkscape:original-d="M 25.960734,31.772838 C 22.451945,30.126074 18.943156,28.479313 15.434367,26.832549 15.165282,24.798272 14.896209,22.764076 14.62713,20.72984 c 3.611849,-1.098505 7.223554,-2.196966 10.835331,-3.295449 0.75808,1.012398 1.51613,2.024755 2.274193,3.037133 0.376719,0.92565 0.753422,1.851263 1.130131,2.776894 0.01077,0.516642 0.02154,1.033263 0.03229,1.549895 -0.236795,0.613512 -0.473578,1.227 -0.710367,1.8405 -0.06458,0.258321 -0.129159,0.516631 -0.193739,0.774946 -0.290483,0.986952 -0.580953,1.973866 -0.871431,2.960796 -0.387609,0.466103 -0.775203,0.932188 -1.162804,1.398283 z"
         transform="translate(-1.3577915,-0.32097202)" /></clipPath><clipPath
       clipPathUnits="userSpaceOnUse"
       id="clipPath6"><path
         style="fill:#00ffff;stroke-width:0.264999"
         d="m 25.470739,29.673797 c 0.951541,0.105254 1.843151,-0.0955 2.162379,-0.614672 0.319227,-0.519169 0.06608,-1.356719 -0.07126,-2.378252 -0.137339,-1.021532 -0.158865,-2.226981 -0.158865,-3.992162 0,-1.765181 0.02153,-4.089976 -0.473589,-5.220107 -0.495115,-1.130131 -1.506831,-1.065553 -2.439011,-0.72141 -0.932181,0.344142 -1.784771,0.967823 -2.903571,1.633409 -1.1188,0.665587 -2.503737,1.373037 -3.380548,2.102311 -0.876811,0.729274 -1.245453,1.480329 -1.164343,2.387188 0.08111,0.906858 0.611957,1.969462 1.292517,2.809726 0.680561,0.840264 1.510791,1.458142 2.229382,1.932117 0.718591,0.473974 1.325504,0.804021 2.13471,1.174682 0.809206,0.370662 1.820656,0.781917 2.772196,0.88717 z"
         id="path7"
         inkscape:path-effect="#path-effect6"
         inkscape:original-d="m 25.530669,29.979807 c 0.891611,-0.200755 1.783221,-0.401513 2.674832,-0.602268 -0.253156,-0.837583 -0.506301,-1.675133 -0.759452,-2.5127 -0.02154,-1.205498 -0.04305,-2.410947 -0.06458,-3.616421 0.02154,-2.324888 0.04305,-4.649683 0.06458,-6.974525 -1.011757,0.06458 -2.023473,0.129158 -3.03521,0.193737 -0.852624,0.623706 -1.705214,1.247387 -2.557821,1.871081 -1.384993,0.707478 -2.76993,1.414928 -4.154895,2.122393 -0.368657,0.751084 -0.737299,1.502139 -1.105948,2.253208 0.530869,1.062648 1.061716,2.125252 1.592574,3.187878 0.830263,0.617902 1.660492,1.235781 2.490739,1.85367 0.606936,0.33006 1.213848,0.660107 1.820772,0.990158 1.011489,0.411271 2.022939,0.822526 3.034409,1.233789 z"
         transform="translate(-2.4883207,0.41562974)" /></clipPath><inkscape:path-effect
       effect="bspline"
       id="path-effect4-0"
       is_visible="true"
       lpeversion="1.3"
       weight="33.333333"
       steps="2"
       helper_size="0"
       apply_no_weight="true"
       apply_with_weight="true"
       only_selected="false"
       uniform="false" /><inkscape:path-effect
       effect="bspline"
       id="path-effect2-0"
       is_visible="true"
       lpeversion="1.3"
       weight="33.333333"
       steps="2"
       helper_size="0"
       apply_no_weight="true"
       apply_with_weight="true"
       only_selected="false"
       uniform="false" /><inkscape:path-effect
       effect="bspline"
       id="path-effect1-3"
       is_visible="true"
       lpeversion="1.3"
       weight="33.333333"
       steps="2"
       helper_size="0"
       apply_no_weight="true"
       apply_with_weight="true"
       only_selected="false"
       uniform="false" /><clipPath
       clipPathUnits="userSpaceOnUse"
       id="clipPath2-3"><path
         style="fill:#00ffff;stroke-width:0.264999"
         d="m 27.474444,17.651577 c 0.832657,0.58121 1.177079,1.700579 1.499976,2.755378 0.322898,1.054799 0.624261,2.04499 0.710364,3.03521 0.0861,0.99022 -0.04305,1.980411 -0.258318,2.787653 -0.215266,0.807243 -0.516628,1.431493 -0.904107,2.023473 -0.387479,0.59198 -0.861048,1.151654 -1.958906,1.560656 -1.097859,0.409002 -2.81993,0.667312 -4.681976,0.258301 -1.862045,-0.40901 -3.863953,-1.485304 -4.945302,-2.49705 -1.081349,-1.011746 -1.242093,-1.958885 -1.322467,-3.013686 -0.08037,-1.054801 -0.08037,-2.217199 0.355192,-3.153601 0.435567,-0.936401 1.306666,-1.646755 2.161995,-2.238734 0.85533,-0.591978 1.69484,-1.065548 2.670404,-1.409971 0.975563,-0.344422 2.087121,-0.559682 3.303371,-0.645787 1.21625,-0.0861 2.537117,-0.04305 3.369774,0.538158 z"
         id="path3-4"
         inkscape:path-effect="#path-effect2-0"
         inkscape:original-d="m 27.96268,17.113419 c 0.344421,1.119368 0.688842,2.238737 1.033264,3.358105 0.301373,0.99023 0.602736,1.980421 0.904105,2.970631 -0.129159,0.99023 -0.258316,1.980421 -0.387475,2.970631 -0.301373,0.624275 -0.602736,1.248525 -0.904105,1.872789 -0.473588,0.559697 -0.947158,1.11937 -1.420735,1.679053 -1.72214,0.258321 -3.444211,0.516631 -5.166316,0.774946 -2.001987,-1.076335 -4.003894,-2.152631 -6.005841,-3.228945 -0.160751,-0.947177 -0.321496,-1.894316 -0.482243,-2.841474 0,-1.162444 0,-2.324842 0,-3.487263 0.871133,-0.710382 1.742232,-1.420736 2.613348,-2.131105 0.839543,-0.473588 1.679053,-0.947158 2.518579,-1.420736 1.111601,-0.215268 2.223159,-0.430527 3.334739,-0.64579 1.32092,0.04305 2.641787,0.0861 3.96268,0.129158 z" /></clipPath><clipPath
       clipPathUnits="userSpaceOnUse"
       id="clipPath4-4"><path
         style="fill:#00ffff;stroke-width:0.264999"
         d="m 24.40014,30.716409 c -1.948195,-0.590334 -5.456984,-2.237097 -7.345921,-4.077617 -1.888936,-1.84052 -2.15801,-3.874716 -0.486625,-5.441086 1.671385,-1.566371 5.28309,-2.664832 7.468018,-2.707874 2.184929,-0.04304 2.942978,0.969315 3.510369,1.938329 0.567391,0.969013 0.944094,1.894626 1.137831,2.615763 0.193737,0.721136 0.2045,1.237757 0.09148,1.802829 -0.113015,0.565072 -0.349799,1.17856 -0.500484,1.61447 -0.150685,0.435911 -0.215263,0.694221 -0.392795,1.316854 -0.177531,0.622634 -0.468002,1.609548 -0.807045,2.336064 -0.339043,0.726517 -0.726636,1.192602 -2.674832,0.602268 z"
         id="path5-9"
         inkscape:path-effect="#path-effect4-0"
         inkscape:original-d="M 25.960734,31.772838 C 22.451945,30.126074 18.943156,28.479313 15.434367,26.832549 15.165282,24.798272 14.896209,22.764076 14.62713,20.72984 c 3.611849,-1.098505 7.223554,-2.196966 10.835331,-3.295449 0.75808,1.012398 1.51613,2.024755 2.274193,3.037133 0.376719,0.92565 0.753422,1.851263 1.130131,2.776894 0.01077,0.516642 0.02154,1.033263 0.03229,1.549895 -0.236795,0.613512 -0.473578,1.227 -0.710367,1.8405 -0.06458,0.258321 -0.129159,0.516631 -0.193739,0.774946 -0.290483,0.986952 -0.580953,1.973866 -0.871431,2.960796 -0.387609,0.466103 -0.775203,0.932188 -1.162804,1.398283 z"
         transform="translate(-1.3577915,-0.32097202)" /></clipPath></defs><g
     inkscape:label="Слой 1"
     inkscape:groupmode="layer"
     id="layer1"><path
       style="fill:none;stroke:#000000;stroke-width:2.5;stroke-dasharray:none;stroke-opacity:1"
       d="M 4.359603,29.552959 4.230445,20.253593 c 0,0 0,-1.808211 1.4853155,-1.808211 0,0 3.0115898,0.133581 4.3913675,-0.355184 4.125984,-1.461568 10.203473,-7.91092 10.203473,-7.91092 0,0 2.712315,-1.2915791 2.647736,2.260263 -0.06458,3.551841 0,24.862891 0,24.862891 0,0 -0.516631,3.09979 -3.680999,0.64579 -3.164368,-2.454 -5.462857,-4.983752 -8.847315,-6.231869 -1.1967726,-0.441345 -3.8101572,-0.355184 -3.8101572,-0.355184 0,0 -2.1956839,0.129159 -2.2602628,-1.80821 z"
       id="path8"
       sodipodi:nodetypes="ccsscscsacc" /><g
       id="g1"
       transform="translate(2.1167416)"><path
         style="fill:none;stroke:#000000;stroke-width:2.5;stroke-dasharray:none;stroke-opacity:1"
         d="m 26.351066,17.468035 c 0,0 3.516144,6.119003 0.182656,13.151291"
         id="path9" /><path
         style="fill:none;stroke:#000000;stroke-width:2.5;stroke-dasharray:none;stroke-opacity:1"
         d="m 29.738602,13.02698 c 0,0 8.12823,11.735701 -0.04566,21.873156"
         id="path10" /></g></g></svg>
